<svg xmlns="http://www.w3.org/2000/svg" enable-background="new 0 0 32 32" viewBox="0 0 32 32" id="pc"><path d="M7.78,14.31h5.47l-1.03,3.05h-1.7c-0.65,0-1.18,0.53-1.18,1.18v1.34c0,0.65,0.53,1.18,1.18,1.18h10.97
	c0.65,0,1.18-0.53,1.18-1.18v-1.34c0-0.65-0.53-1.18-1.18-1.18h-1.7l-1.03-3.05h5.47c0.65,0,1.18-0.53,1.18-1.18V3.68
	c0-0.65-0.53-1.18-1.18-1.18H7.78C7.13,2.5,6.6,3.03,6.6,3.68v9.44C6.6,13.78,7.13,14.31,7.78,14.31z M21.48,18.36
	c0.1,0,0.18,0.08,0.18,0.18v1.34c0,0.1-0.08,0.18-0.18,0.18H10.52c-0.1,0-0.18-0.08-0.18-0.18v-1.34c0-0.1,0.08-0.18,0.18-0.18h1.36
	h8.24H21.48z M18.73,17.36h-5.46l1.03-3.05h3.39L18.73,17.36z M24.22,13.31h-5.81h-4.83H7.78c-0.1,0-0.18-0.08-0.18-0.18V11.6H24.4
	v1.52C24.4,13.22,24.32,13.31,24.22,13.31z M7.78,3.5h16.45c0.1,0,0.18,0.08,0.18,0.18v6.92H7.6V3.68C7.6,3.58,7.68,3.5,7.78,3.5z"></path><path d="M16.46 11.95h-.91c-.28 0-.5.22-.5.5s.22.5.5.5h.91c.28 0 .5-.22.5-.5S16.73 11.95 16.46 11.95zM4.87 29.5h22.26c.55 0 1.06-.3 1.32-.79.26-.49.23-1.08-.07-1.54l-2.67-4c-.28-.42-.75-.67-1.25-.67H7.54c-.5 0-.97.25-1.25.67l-2.67 4c-.31.46-.34 1.05-.07 1.54C3.81 29.2 4.31 29.5 4.87 29.5zM4.45 27.72l2.67-4c.09-.14.25-.22.42-.22h16.93c.17 0 .32.08.42.22l2.67 4c.15.23.07.43.02.51-.04.08-.17.26-.44.26H4.87c-.27 0-.4-.18-.44-.26S4.3 27.95 4.45 27.72z"></path><path d="M7 27.5h3c.28 0 .5-.22.5-.5s-.22-.5-.5-.5H7c-.28 0-.5.22-.5.5S6.72 27.5 7 27.5zM22 27.5h3c.28 0 .5-.22.5-.5s-.22-.5-.5-.5h-3c-.28 0-.5.22-.5.5S21.72 27.5 22 27.5zM12.07 27c0 .28.22.5.5.5h6.86c.28 0 .5-.22.5-.5s-.22-.5-.5-.5h-6.86C12.29 26.5 12.07 26.72 12.07 27zM8 25.5h1c.28 0 .5-.22.5-.5S9.28 24.5 9 24.5H8c-.28 0-.5.22-.5.5S7.72 25.5 8 25.5zM11 25.5h1c.28 0 .5-.22.5-.5s-.22-.5-.5-.5h-1c-.28 0-.5.22-.5.5S10.72 25.5 11 25.5zM14 25.5h1c.28 0 .5-.22.5-.5s-.22-.5-.5-.5h-1c-.28 0-.5.22-.5.5S13.72 25.5 14 25.5zM17 25.5h1c.28 0 .5-.22.5-.5s-.22-.5-.5-.5h-1c-.28 0-.5.22-.5.5S16.72 25.5 17 25.5zM19.98 25.5H21c.28 0 .5-.22.5-.5s-.22-.5-.5-.5h-1.01c-.28 0-.5.22-.5.5S19.71 25.5 19.98 25.5zM23 25.5h1c.28 0 .5-.22.5-.5s-.22-.5-.5-.5h-1c-.28 0-.5.22-.5.5S22.72 25.5 23 25.5z"></path></svg>